<svg width="23" height="23" viewBox="0 0 32 32" fill="none" xmlns="http://www.w3.org/2000/svg">
<g id="instagram 1" clip-path="url(#clip0_32_152)">
<path id="Vector" d="M16.0069 7.99108C11.5921 7.99108 8.03098 11.5638 8.03098 15.993C8.03098 20.4223 11.5921 23.995 16.0069 23.995C20.4218 23.995 23.9829 20.4223 23.9829 15.993C23.9829 11.5638 20.4218 7.99108 16.0069 7.99108ZM16.0069 21.1954C13.1539 21.1954 10.8215 18.8623 10.8215 15.993C10.8215 13.1238 13.147 10.7907 16.0069 10.7907C18.8669 10.7907 21.1924 13.1238 21.1924 15.993C21.1924 18.8623 18.86 21.1954 16.0069 21.1954ZM26.1695 7.66375C26.1695 8.70143 25.3365 9.53018 24.3092 9.53018C23.2748 9.53018 22.4488 8.69447 22.4488 7.66375C22.4488 6.63304 23.2818 5.79733 24.3092 5.79733C25.3365 5.79733 26.1695 6.63304 26.1695 7.66375ZM31.4521 9.55804C31.3341 7.05786 30.7649 4.84322 28.9392 3.01858C27.1205 1.19393 24.9131 0.622862 22.421 0.497505C19.8526 0.351255 12.1543 0.351255 9.58591 0.497505C7.1008 0.615898 4.89336 1.18697 3.0677 3.01161C1.24205 4.83626 0.679776 7.0509 0.554827 9.55108C0.409052 12.1279 0.409052 19.8513 0.554827 22.428C0.672835 24.9282 1.24205 27.1429 3.0677 28.9675C4.89336 30.7921 7.09386 31.3632 9.58591 31.4886C12.1543 31.6348 19.8526 31.6348 22.421 31.4886C24.9131 31.3702 27.1205 30.7991 28.9392 28.9675C30.7579 27.1429 31.3272 24.9282 31.4521 22.428C31.5979 19.8513 31.5979 12.1348 31.4521 9.55804ZM28.134 25.1929C27.5926 26.5579 26.5444 27.6095 25.1769 28.1596C23.1291 28.9745 18.2699 28.7864 16.0069 28.7864C13.744 28.7864 8.87786 28.9675 6.83702 28.1596C5.47646 27.6164 4.42827 26.5648 3.87988 25.1929C3.0677 23.1384 3.25513 18.2634 3.25513 15.993C3.25513 13.7227 3.07465 8.84072 3.87988 6.79322C4.42133 5.42822 5.46951 4.37661 6.83702 3.82643C8.88481 3.01161 13.744 3.19965 16.0069 3.19965C18.2699 3.19965 23.136 3.01858 25.1769 3.82643C26.5374 4.36965 27.5856 5.42125 28.134 6.79322C28.9462 8.84768 28.7588 13.7227 28.7588 15.993C28.7588 18.2634 28.9462 23.1454 28.134 25.1929Z" fill="white"/>
</g>
<defs>
<clipPath id="clip0_32_152">
<rect width="32" height="32" fill="white"/>
</clipPath>
</defs>
</svg>
