<svg width="29" height="18" viewBox="0 0 38 27" fill="none" xmlns="http://www.w3.org/2000/svg">
<g id="youtube 1" clip-path="url(#clip0_32_148)">
<path id="Vector" d="M37.084 4.4565C36.6499 2.83518 35.3708 1.55828 33.7469 1.12494C30.8033 0.337524 19 0.337524 19 0.337524C19 0.337524 7.19676 0.337524 4.25313 1.12494C2.62917 1.55835 1.35015 2.83518 0.916046 4.4565C0.127319 7.39523 0.127319 13.5266 0.127319 13.5266C0.127319 13.5266 0.127319 19.658 0.916046 22.5968C1.35015 24.2181 2.62917 25.4418 4.25313 25.8751C7.19676 26.6625 19 26.6625 19 26.6625C19 26.6625 30.8033 26.6625 33.7469 25.8751C35.3708 25.4418 36.6499 24.2181 37.084 22.5968C37.8727 19.658 37.8727 13.5266 37.8727 13.5266C37.8727 13.5266 37.8727 7.39523 37.084 4.4565ZM15.1397 19.0935V7.95978L25.0049 13.5268L15.1397 19.0935Z" fill="white"/>
</g>
<defs>
<clipPath id="clip0_32_148">
<rect width="38" height="27" fill="white"/>
</clipPath>
</defs>
</svg>
